<svg width="22" height="20" viewBox="0 0 22 20" fill="none" xmlns="http://www.w3.org/2000/svg">
<path d="M2.44444 17.7778H4.18611L16.1333 6.91667L14.3917 5.33333L2.44444 16.1944V17.7778ZM0 20V15.2778L16.1333 0.638889C16.3778 0.435185 16.6477 0.277778 16.9431 0.166667C17.2384 0.0555556 17.5491 0 17.875 0C18.2009 0 18.5167 0.0555556 18.8222 0.166667C19.1278 0.277778 19.3926 0.444444 19.6167 0.666667L21.2972 2.22222C21.5417 2.42593 21.7199 2.66667 21.8319 2.94444C21.944 3.22222 22 3.5 22 3.77778C22 4.07407 21.944 4.35648 21.8319 4.625C21.7199 4.89352 21.5417 5.13889 21.2972 5.36111L5.19444 20H0ZM15.2472 6.13889L14.3917 5.33333L16.1333 6.91667L15.2472 6.13889Z" fill="black"/>
</svg>
