<svg width="26" height="21" viewBox="0 0 26 21" fill="none" xmlns="http://www.w3.org/2000/svg">
<path d="M5.25 17.5C4.78333 17.5 4.375 17.3201 4.025 16.9604C3.675 16.6007 3.5 16.1972 3.5 15.75V1.75C3.5 1.28333 3.675 0.875 4.025 0.525C4.375 0.175 4.78333 0 5.25 0H23.9167C24.3833 0 24.7917 0.175 25.1417 0.525C25.4917 0.875 25.6667 1.28333 25.6667 1.75V15.75C25.6667 16.1972 25.4917 16.6007 25.1417 16.9604C24.7917 17.3201 24.3833 17.5 23.9167 17.5H5.25ZM14.5833 11.6667L5.25 3.90833V15.75H23.9167V3.90833L14.5833 11.6667ZM14.5833 9.3625L23.7708 1.75H5.39583L14.5833 9.3625ZM1.75 21C1.28333 21 0.875 20.8201 0.525 20.4604C0.175 20.1007 0 19.6972 0 19.25V2.94583H1.75V19.25H22.75V21H1.75Z" fill="black"/>
</svg>
