<svg width="28" height="19" viewBox="0 0 28 19" fill="none" xmlns="http://www.w3.org/2000/svg">
<path d="M18.0568 13.5375C19.1705 12.4292 19.7273 11.0833 19.7273 9.5C19.7273 7.91667 19.1705 6.57083 18.0568 5.4625C16.9432 4.35417 15.5909 3.8 14 3.8C12.4091 3.8 11.0568 4.35417 9.94318 5.4625C8.82955 6.57083 8.27273 7.91667 8.27273 9.5C8.27273 11.0833 8.82955 12.4292 9.94318 13.5375C11.0568 14.6458 12.4091 15.2 14 15.2C15.5909 15.2 16.9432 14.6458 18.0568 13.5375ZM11.5659 11.9225C10.8977 11.2575 10.5636 10.45 10.5636 9.5C10.5636 8.55 10.8977 7.7425 11.5659 7.0775C12.2341 6.4125 13.0455 6.08 14 6.08C14.9545 6.08 15.7659 6.4125 16.4341 7.0775C17.1023 7.7425 17.4364 8.55 17.4364 9.5C17.4364 10.45 17.1023 11.2575 16.4341 11.9225C15.7659 12.5875 14.9545 12.92 14 12.92C13.0455 12.92 12.2341 12.5875 11.5659 11.9225ZM5.53636 16.4192C2.99091 14.6986 1.14545 12.3922 0 9.5C1.14545 6.60778 2.99091 4.30139 5.53636 2.58083C8.08182 0.860278 10.903 0 14 0C17.097 0 19.9182 0.860278 22.4636 2.58083C25.0091 4.30139 26.8545 6.60778 28 9.5C26.8545 12.3922 25.0091 14.6986 22.4636 16.4192C19.9182 18.1397 17.097 19 14 19C10.903 19 8.08182 18.1397 5.53636 16.4192ZM20.6023 14.5825C22.6068 13.3264 24.1394 11.6322 25.2 9.5C24.1394 7.36778 22.6068 5.67361 20.6023 4.4175C18.5977 3.16139 16.397 2.53333 14 2.53333C11.603 2.53333 9.40227 3.16139 7.39773 4.4175C5.39318 5.67361 3.86061 7.36778 2.8 9.5C3.86061 11.6322 5.39318 13.3264 7.39773 14.5825C9.40227 15.8386 11.603 16.4667 14 16.4667C16.397 16.4667 18.5977 15.8386 20.6023 14.5825Z" fill="black"/>
</svg>
