<svg width="27" height="21" viewBox="0 0 27 21" fill="none" xmlns="http://www.w3.org/2000/svg">
<path d="M4.86354 20.5417V8.7L1.0875 11.5698L0 10.15L13.2917 0L18.6687 4.10833V1.20833H21.6896V6.40417L26.5833 10.15L25.4656 11.5698L21.6896 8.66979V20.5417H14.8021V13.2917H11.7812V20.5417H4.86354ZM6.67604 18.7292H9.96875V11.4792H16.6146V18.7292H19.8771V7.31042L13.2917 2.26562L6.67604 7.31042V18.7292ZM10.724 8.15625H15.8594C15.8594 7.49167 15.6026 6.94288 15.0891 6.5099C14.5755 6.07691 13.9764 5.86042 13.2917 5.86042C12.6069 5.86042 12.0078 6.0753 11.4943 6.50506C10.9807 6.93483 10.724 7.48522 10.724 8.15625Z" fill="black"/>
</svg>
