<svg width="24" height="24" viewBox="0 0 24 24" fill="none" xmlns="http://www.w3.org/2000/svg">
<path d="M10.968 17.6429H12.7323V10.5857H10.968V17.6429ZM12.4529 8.13924C12.6391 7.95889 12.7323 7.73541 12.7323 7.46881C12.7323 7.18554 12.6393 6.94815 12.4535 6.75663C12.2677 6.56491 12.0373 6.46905 11.7625 6.46905C11.4877 6.46905 11.2571 6.56491 11.0709 6.75663C10.8847 6.94815 10.7915 7.18554 10.7915 7.46881C10.7915 7.73541 10.8845 7.95889 11.0703 8.13924C11.2561 8.31959 11.4865 8.40976 11.7613 8.40976C12.0362 8.40976 12.2667 8.31959 12.4529 8.13924ZM11.7698 23.5238C10.1479 23.5238 8.62373 23.2151 7.1974 22.5976C5.77088 21.9801 4.52343 21.1371 3.45506 20.0688C2.38669 19.0004 1.54375 17.7522 0.92625 16.3243C0.30875 14.8965 0 13.3707 0 11.7472C0 10.1237 0.30875 8.59795 0.92625 7.17006C1.54375 5.74216 2.38669 4.49893 3.45506 3.44036C4.52343 2.38179 5.77157 1.54375 7.19946 0.92625C8.62736 0.30875 10.1531 0 11.7766 0C13.4001 0 14.9259 0.30875 16.3538 0.92625C17.7816 1.54375 19.0249 2.38179 20.0835 3.44036C21.142 4.49893 21.9801 5.74373 22.5976 7.17476C23.2151 8.60579 23.5238 10.1322 23.5238 11.754C23.5238 13.3759 23.2151 14.9001 22.5976 16.3264C21.9801 17.7529 21.142 18.9986 20.0835 20.0635C19.0249 21.1281 17.7801 21.971 16.349 22.5923C14.918 23.2133 13.3916 23.5238 11.7698 23.5238ZM11.7766 21.7595C14.5505 21.7595 16.9077 20.7843 18.8485 18.8337C20.7892 16.8832 21.7595 14.5211 21.7595 11.7472C21.7595 8.97335 20.791 6.61607 18.854 4.67536C16.917 2.73464 14.553 1.76429 11.7619 1.76429C8.99786 1.76429 6.64058 2.73278 4.69006 4.66977C2.73954 6.60676 1.76429 8.9708 1.76429 11.7619C1.76429 14.526 2.73954 16.8832 4.69006 18.8337C6.64058 20.7843 9.00276 21.7595 11.7766 21.7595Z" fill="black"/>
</svg>
