<svg width="24" height="23" viewBox="0 0 24 23" fill="none" xmlns="http://www.w3.org/2000/svg">
<path d="M4.14167 17.5781C5.36667 16.7531 6.58194 16.1203 7.7875 15.6797C8.99306 15.2391 10.2861 15.0187 11.6667 15.0187C13.0472 15.0187 14.3451 15.2391 15.5604 15.6797C16.7757 16.1203 17.9958 16.7531 19.2208 17.5781C20.0764 16.5656 20.684 15.5437 21.0438 14.5125C21.4035 13.4812 21.5833 12.3937 21.5833 11.25C21.5833 8.53125 20.6354 6.25781 18.7396 4.42969C16.8438 2.60156 14.4861 1.6875 11.6667 1.6875C8.84722 1.6875 6.48958 2.60156 4.59375 4.42969C2.69792 6.25781 1.75 8.53125 1.75 11.25C1.75 12.3937 1.93472 13.4812 2.30417 14.5125C2.67361 15.5437 3.28611 16.5656 4.14167 17.5781ZM8.82292 10.9828C8.05486 10.2422 7.67083 9.32812 7.67083 8.24062C7.67083 7.15312 8.05486 6.23906 8.82292 5.49844C9.59097 4.75781 10.5389 4.3875 11.6667 4.3875C12.7944 4.3875 13.7424 4.75781 14.5104 5.49844C15.2785 6.23906 15.6625 7.15312 15.6625 8.24062C15.6625 9.32812 15.2785 10.2422 14.5104 10.9828C13.7424 11.7234 12.7944 12.0938 11.6667 12.0938C10.5389 12.0938 9.59097 11.7234 8.82292 10.9828ZM11.6667 22.5C10.0722 22.5 8.56528 22.2047 7.14583 21.6141C5.72639 21.0234 4.48681 20.2172 3.42708 19.1953C2.36736 18.1734 1.53125 16.9781 0.91875 15.6094C0.30625 14.2406 0 12.7875 0 11.25C0 9.69375 0.30625 8.23594 0.91875 6.87656C1.53125 5.51719 2.36736 4.32656 3.42708 3.30469C4.48681 2.28281 5.72639 1.47656 7.14583 0.885937C8.56528 0.295312 10.0722 0 11.6667 0C13.2806 0 14.7924 0.295312 16.2021 0.885937C17.6118 1.47656 18.8465 2.28281 19.9062 3.30469C20.966 4.32656 21.8021 5.51719 22.4146 6.87656C23.0271 8.23594 23.3333 9.69375 23.3333 11.25C23.3333 12.7875 23.0271 14.2406 22.4146 15.6094C21.8021 16.9781 20.966 18.1734 19.9062 19.1953C18.8465 20.2172 17.6118 21.0234 16.2021 21.6141C14.7924 22.2047 13.2806 22.5 11.6667 22.5ZM14.8021 20.3625C15.8229 20.0625 16.8292 19.5375 17.8208 18.7875C16.8292 18.1125 15.8181 17.5969 14.7875 17.2406C13.7569 16.8844 12.7167 16.7062 11.6667 16.7062C10.6167 16.7062 9.57639 16.8844 8.54583 17.2406C7.51528 17.5969 6.50417 18.1125 5.5125 18.7875C6.50417 19.5375 7.51042 20.0625 8.53125 20.3625C9.55208 20.6625 10.5972 20.8125 11.6667 20.8125C12.7361 20.8125 13.7812 20.6625 14.8021 20.3625ZM13.2854 9.80156C13.7035 9.39844 13.9125 8.87813 13.9125 8.24062C13.9125 7.60312 13.7035 7.08281 13.2854 6.67969C12.8674 6.27656 12.3278 6.075 11.6667 6.075C11.0056 6.075 10.466 6.27656 10.0479 6.67969C9.62986 7.08281 9.42083 7.60312 9.42083 8.24062C9.42083 8.87813 9.62986 9.39844 10.0479 9.80156C10.466 10.2047 11.0056 10.4062 11.6667 10.4062C12.3278 10.4062 12.8674 10.2047 13.2854 9.80156Z" fill="black"/>
</svg>
