<svg width="30" height="22" viewBox="0 0 30 22" fill="none" xmlns="http://www.w3.org/2000/svg">
<path d="M14.7333 21.3333C11.7556 21.3333 9.22222 20.3 7.13333 18.2333C5.04444 16.1667 4 13.6444 4 10.6667V10.4333L1.86667 12.5667L0 10.7L5.33333 5.36667L10.6667 10.7L8.8 12.5667L6.66667 10.4333V10.6667C6.66667 12.8889 7.45 14.7778 9.01667 16.3333C10.5833 17.8889 12.4889 18.6667 14.7333 18.6667C15.3111 18.6667 15.8778 18.6 16.4333 18.4667C16.9889 18.3333 17.5333 18.1333 18.0667 17.8667L20.0667 19.8667C19.2222 20.3556 18.3556 20.7222 17.4667 20.9667C16.5778 21.2111 15.6667 21.3333 14.7333 21.3333ZM24 15.9667L18.6667 10.6333L20.5333 8.76667L22.6667 10.9V10.6667C22.6667 8.44444 21.8833 6.55556 20.3167 5C18.75 3.44444 16.8444 2.66667 14.6 2.66667C14.0222 2.66667 13.4556 2.73333 12.9 2.86667C12.3444 3 11.8 3.2 11.2667 3.46667L9.26667 1.46667C10.1111 0.977778 10.9778 0.611111 11.8667 0.366667C12.7556 0.122222 13.6667 0 14.6 0C17.5778 0 20.1111 1.03333 22.2 3.1C24.2889 5.16667 25.3333 7.68889 25.3333 10.6667V10.9L27.4667 8.76667L29.3333 10.6333L24 15.9667Z" fill="black"/>
</svg>
