<svg width="20" height="20" viewBox="0 0 20 20" fill="none" xmlns="http://www.w3.org/2000/svg">
<path d="M7.6 14.65L10 12.8L12.4 14.65L11.5 11.6L13.75 10H10.95L10 6.9L9.05 10H6.25L8.5 11.6L7.6 14.65ZM3.825 20L6.15 12.4L0 8H7.6L10 0L12.4 8H20L13.85 12.4L16.175 20L10 15.3L3.825 20Z" fill="black"/>
<path d="M7.6 14.65L10 12.8L12.4 14.65L11.5 11.6L13.75 10H10.95L10 6.9L9.05 10H6.25L8.5 11.6L7.6 14.65ZM3.825 20L6.15 12.4L0 8H7.6L10 0L12.4 8H20L13.85 12.4L16.175 20L10 15.3L3.825 20Z" fill="black"/>
<path d="M14 10.3059C14 11.3687 12.2091 12.2303 10 12.2303C7.79086 12.2303 6 11.3687 6 10.3059C6 9.24309 7.79086 8.38151 10 8.38151C12.2091 8.38151 14 9.24309 14 10.3059Z" fill="black"/>
<path d="M14 10.3059C14 11.3687 12.2091 12.2303 10 12.2303C7.79086 12.2303 6 11.3687 6 10.3059C6 9.24309 7.79086 8.38151 10 8.38151C12.2091 8.38151 14 9.24309 14 10.3059Z" fill="black"/>
<path d="M14 13.1051C14 14.1516 12.2091 15 10 15C7.79086 15 6 14.1516 6 13.1051C6 12.0586 7.79086 11.2102 10 11.2102C12.2091 11.2102 14 12.0586 14 13.1051Z" fill="black"/>
<path d="M14 13.1051C14 14.1516 12.2091 15 10 15C7.79086 15 6 14.1516 6 13.1051C6 12.0586 7.79086 11.2102 10 11.2102C12.2091 11.2102 14 12.0586 14 13.1051Z" fill="black"/>
<path d="M11.5 8.15001C11.5 9.33742 10.8284 10.3 10 10.3C9.17157 10.3 8.5 9.33742 8.5 8.15001C8.5 6.96259 9.17157 6 10 6C10.8284 6 11.5 6.96259 11.5 8.15001Z" fill="black"/>
<path d="M11.5 8.15001C11.5 9.33742 10.8284 10.3 10 10.3C9.17157 10.3 8.5 9.33742 8.5 8.15001C8.5 6.96259 9.17157 6 10 6C10.8284 6 11.5 6.96259 11.5 8.15001Z" fill="black"/>
</svg>
