<svg width="27" height="25" viewBox="0 0 27 25" fill="none" xmlns="http://www.w3.org/2000/svg">
<path d="M12.5 25C10.7708 25 9.14583 24.6719 7.625 24.0156C6.10417 23.3594 4.78125 22.4688 3.65625 21.3438C2.53125 20.2188 1.64062 18.8958 0.984375 17.375C0.328125 15.8542 0 14.2292 0 12.5C0 10.7708 0.328125 9.14583 0.984375 7.625C1.64062 6.10417 2.53125 4.78125 3.65625 3.65625C4.78125 2.53125 6.10417 1.64063 7.625 0.984375C9.14583 0.328125 10.7708 0 12.5 0C15.6667 0 18.4115 1.02083 20.7344 3.0625C23.0573 5.10417 24.4375 7.64583 24.875 10.6875C24.4583 10.4792 24.026 10.3177 23.5781 10.2031C23.1302 10.0885 22.6667 10.0208 22.1875 10C21.7917 8.47917 21.0781 7.125 20.0469 5.9375C19.0156 4.75 17.75 3.85417 16.25 3.25V3.75C16.25 4.4375 16.0052 5.02604 15.5156 5.51563C15.026 6.00521 14.4375 6.25 13.75 6.25H11.25V8.75C11.25 9.10417 11.1302 9.40104 10.8906 9.64063C10.651 9.88021 10.3542 10 10 10H7.5V12.5H15C15.2292 12.5 15.4427 12.5573 15.6406 12.6719C15.8385 12.7865 15.9896 12.9479 16.0938 13.1563C15.7396 13.7188 15.4688 14.3125 15.2812 14.9375C15.0938 15.5625 15 16.2083 15 16.875C15 18.1875 15.3385 19.4063 16.0156 20.5313C16.6927 21.6563 17.3854 22.7083 18.0938 23.6875C17.2396 24.1042 16.3438 24.4271 15.4062 24.6563C14.4688 24.8854 13.5 25 12.5 25ZM11.25 22.4375V20C10.5625 20 9.97396 19.7552 9.48438 19.2656C8.99479 18.776 8.75 18.1875 8.75 17.5V16.25L2.75 10.25C2.6875 10.625 2.63021 11 2.57812 11.375C2.52604 11.75 2.5 12.125 2.5 12.5C2.5 15.0208 3.32812 17.2292 4.98438 19.125C6.64062 21.0208 8.72917 22.125 11.25 22.4375ZM21.5 24.875C21.3958 24.7917 21.3229 24.6875 21.2812 24.5625C21.0521 23.8333 20.7292 23.1563 20.3125 22.5313C19.8958 21.9063 19.4479 21.2917 18.9688 20.6875C18.5312 20.1458 18.1771 19.5521 17.9062 18.9063C17.6354 18.2604 17.5 17.5833 17.5 16.875C17.5 15.6667 17.9271 14.6354 18.7812 13.7813C19.6354 12.9271 20.6667 12.5 21.875 12.5C23.0833 12.5 24.1146 12.9271 24.9688 13.7813C25.8229 14.6354 26.25 15.6667 26.25 16.875C26.25 17.5833 26.1094 18.2552 25.8281 18.8906C25.5469 19.526 25.1979 20.125 24.7812 20.6875C24.3021 21.2917 23.8542 21.9063 23.4375 22.5313C23.0208 23.1563 22.6979 23.8333 22.4688 24.5625C22.4271 24.6875 22.3542 24.7917 22.25 24.875C22.1458 24.9583 22.0208 25 21.875 25C21.7292 25 21.6042 24.9583 21.5 24.875ZM21.875 21.4688C22.0833 21.1146 22.3125 20.7865 22.5625 20.4844C22.8125 20.1823 23.0521 19.875 23.2812 19.5625C23.5729 19.1667 23.8281 18.7448 24.0469 18.2969C24.2656 17.849 24.375 17.375 24.375 16.875C24.375 16.1875 24.1302 15.599 23.6406 15.1094C23.151 14.6198 22.5625 14.375 21.875 14.375C21.1875 14.375 20.599 14.6198 20.1094 15.1094C19.6198 15.599 19.375 16.1875 19.375 16.875C19.375 17.375 19.4844 17.849 19.7031 18.2969C19.9219 18.7448 20.1771 19.1667 20.4688 19.5625C20.7188 19.875 20.9635 20.1823 21.2031 20.4844C21.4427 20.7865 21.6667 21.1146 21.875 21.4688ZM20.7656 17.9844C20.4635 17.6823 20.3125 17.3125 20.3125 16.875C20.3125 16.4375 20.4635 16.0677 20.7656 15.7656C21.0677 15.4635 21.4375 15.3125 21.875 15.3125C22.3125 15.3125 22.6823 15.4635 22.9844 15.7656C23.2865 16.0677 23.4375 16.4375 23.4375 16.875C23.4375 17.3125 23.2865 17.6823 22.9844 17.9844C22.6823 18.2865 22.3125 18.4375 21.875 18.4375C21.4375 18.4375 21.0677 18.2865 20.7656 17.9844Z" fill="black"/>
</svg>
