<svg width="21" height="21" viewBox="0 0 21 21" fill="none" xmlns="http://www.w3.org/2000/svg">
<path d="M1.75 21C1.28333 21 0.875 20.825 0.525 20.475C0.175 20.125 0 19.7167 0 19.25V1.75C0 1.28333 0.175 0.875 0.525 0.525C0.875 0.175 1.28333 0 1.75 0H19.25C19.7167 0 20.125 0.175 20.475 0.525C20.825 0.875 21 1.28333 21 1.75V19.25C21 19.7167 20.825 20.125 20.475 20.475C20.125 20.825 19.7167 21 19.25 21H1.75ZM1.75 19.25H19.25V1.75H1.75V19.25ZM3.38333 16.4208H17.6458L13.3583 10.7042L9.50833 15.6917L6.79583 11.9875L3.38333 16.4208ZM7.45208 7.44858C7.73403 7.16431 7.875 6.81917 7.875 6.41317C7.875 6.00717 7.73286 5.66319 7.44858 5.38125C7.16431 5.09931 6.81917 4.95833 6.41317 4.95833C6.00717 4.95833 5.66319 5.10047 5.38125 5.38475C5.09931 5.66903 4.95833 6.01417 4.95833 6.42017C4.95833 6.82617 5.10047 7.17014 5.38475 7.45208C5.66903 7.73403 6.01417 7.875 6.42017 7.875C6.82617 7.875 7.17014 7.73286 7.45208 7.44858Z" fill="#0079BB"/>
</svg>
