<svg width="27" height="24" viewBox="0 0 27 24" fill="none" xmlns="http://www.w3.org/2000/svg">
<path d="M25 20.875L21.25 17.125L23 15.375L26.75 19.125L25 20.875ZM20.5 5.875L18.75 4.125L22.5 0.375L24.25 2.125L20.5 5.875ZM6.25 5.875L2.5 2.125L4.25 0.375L8 4.125L6.25 5.875ZM1.75 20.875L0 19.125L3.75 15.375L5.5 17.125L1.75 20.875ZM9.4375 18.5312L13.375 16.1562L17.3125 18.5625L16.2813 14.0625L19.75 11.0625L15.1875 10.6562L13.375 6.40625L11.5625 10.625L7 11.0312L10.4688 14.0625L9.4375 18.5312ZM5.65625 23.75L7.6875 14.9687L0.875 9.0625L9.875 8.28125L13.375 0L16.875 8.28125L25.875 9.0625L19.0625 14.9687L21.0938 23.75L13.375 19.0937L5.65625 23.75Z" fill="#0079BB"/>
</svg>
