<svg width="23" height="15" viewBox="0 0 23 15" fill="none" xmlns="http://www.w3.org/2000/svg">
<path d="M0 14.6667L5.4841 0H8.10983L13.5939 14.6667H11.0679L9.77168 10.9333H3.85549L2.52601 14.6667H0ZM4.61994 8.8H8.97399L6.84682 2.73333H6.71387L4.61994 8.8ZM17.7486 15C16.6185 15 15.7211 14.6944 15.0564 14.0833C14.3916 13.4722 14.0592 12.6667 14.0592 11.6667C14.0592 10.6889 14.4415 9.88333 15.2059 9.25C15.9704 8.61667 16.9509 8.3 18.1474 8.3C18.657 8.3 19.1556 8.34444 19.6431 8.43333C20.1305 8.52222 20.5515 8.64444 20.9061 8.8V8.4C20.9061 7.75556 20.679 7.23333 20.2247 6.83333C19.7705 6.43333 19.1667 6.23333 18.4133 6.23333C17.9037 6.23333 17.4383 6.33889 17.0173 6.55C16.5963 6.76111 16.2307 7.06667 15.9205 7.46667L14.3584 6.3C14.8902 5.65556 15.494 5.17778 16.1698 4.86667C16.8456 4.55556 17.6045 4.4 18.4465 4.4C19.9754 4.4 21.1166 4.76111 21.8699 5.48333C22.6233 6.20556 23 7.28889 23 8.73333V14.6667H20.9061V13.4333H20.7731C20.4629 13.9444 20.0419 14.3333 19.5101 14.6C18.9783 14.8667 18.3911 15 17.7486 15ZM18.1474 13.2C18.9229 13.2 19.5821 12.9333 20.125 12.4C20.6679 11.8667 20.9393 11.2444 20.9393 10.5333C20.6291 10.3556 20.2579 10.2167 19.8259 10.1167C19.3938 10.0167 18.9672 9.96667 18.5462 9.96667C17.8372 9.96667 17.2832 10.1222 16.8844 10.4333C16.4855 10.7444 16.2861 11.1556 16.2861 11.6667C16.2861 12.1111 16.4634 12.4778 16.8179 12.7667C17.1724 13.0556 17.6156 13.2 18.1474 13.2Z" fill="white"/>
</svg>
